HIERARCHY
ROOT Hips
{
    OFFSET 0.000000 97.120003 0.000000
    CHANNELS 6 Xposition Yposition Zposition Yrotation Xrotation Zrotation
    JOINT RightUpLeg
    {
        OFFSET -11.000000 -0.000000 0.000000
        CHANNELS 3 Yrotation Xrotation Zrotation
        JOINT RightLeg
        {
            OFFSET 0.000000 -45.062000 0.000000
            CHANNELS 3 Yrotation Xrotation Zrotation
            JOINT RightFoot
            {
                OFFSET 0.000000 -42.057999 0.000000
                CHANNELS 3 Yrotation Xrotation Zrotation
                End Site
                {
                    OFFSET 0.000000 -10.000000 15.120000
                }
            }
        }
    }
    JOINT LeftUpLeg
    {
        OFFSET 11.000000 -0.000000 0.000000
        CHANNELS 3 Yrotation Xrotation Zrotation
        JOINT LeftLeg
        {
            OFFSET 0.000000 -45.062000 0.000000
            CHANNELS 3 Yrotation Xrotation Zrotation
            JOINT LeftFoot
            {
                OFFSET 0.000000 -42.057999 0.000000
                CHANNELS 3 Yrotation Xrotation Zrotation
                End Site
                {
                    OFFSET 0.000000 -10.000000 15.120000
                }
            }
        }
    }
    JOINT Spine
    {
        OFFSET 0.000000 8.120000 0.000000
        CHANNELS 3 Yrotation Xrotation Zrotation
        JOINT Spine1
        {
            OFFSET 0.000000 17.980000 0.000000
            CHANNELS 3 Yrotation Xrotation Zrotation
            JOINT Spine2
            {
                OFFSET 0.000000 12.760000 0.000000
                CHANNELS 3 Yrotation Xrotation Zrotation
                JOINT Neck
                {
                    OFFSET 0.000000 19.139999 0.000000
                    CHANNELS 3 Yrotation Xrotation Zrotation
                    JOINT Neck1
                    {
                        OFFSET 0.000000 4.250000 0.000000
                        CHANNELS 3 Yrotation Xrotation Zrotation
                        JOINT Head
                        {
                            OFFSET 0.000000 4.250000 0.000000
                            CHANNELS 3 Yrotation Xrotation Zrotation
                            End Site
                            {
                                OFFSET 0.000000 19.120001 0.000000
                            }
                        }
                    }
                }
                JOINT RightShoulder
                {
                    OFFSET -2.900000 13.340000 0.000000
                    CHANNELS 3 Yrotation Xrotation Zrotation
                    JOINT RightArm
                    {
                        OFFSET -16.100000 0.000000 0.000000
                        CHANNELS 3 Yrotation Xrotation Zrotation
                        JOINT RightForeArm
                        {
                            OFFSET -28.000000 0.000000 0.000000
                            CHANNELS 3 Yrotation Xrotation Zrotation
                            JOINT RightHand
                            {
                                OFFSET -26.000000 0.000000 0.000000
                                CHANNELS 3 Yrotation Xrotation Zrotation
                                JOINT RightHandThumb1
                                {
                                    OFFSET -1.937000 -0.484000 2.518000
                                    CHANNELS 3 Yrotation Xrotation Zrotation
                                    JOINT RightHandThumb2
                                    {
                                        OFFSET -3.872000 0.000000 0.000000
                                        CHANNELS 3 Yrotation Xrotation Zrotation
                                        JOINT RightHandThumb3
                                        {
                                            OFFSET -2.690000 0.000000 0.000000
                                            CHANNELS 3 Yrotation Xrotation Zrotation
                                            End Site
                                            {
                                                OFFSET -2.537000 0.000000 0.000000
                                            }
                                        }
                                    }
                                }
                                JOINT RightInHandIndex
                                {
                                    OFFSET -3.389000 0.535000 2.080000
                                    CHANNELS 3 Yrotation Xrotation Zrotation
                                    JOINT RightHandIndex1
                                    {
                                        OFFSET -5.485000 -0.096000 1.051000
                                        CHANNELS 3 Yrotation Xrotation Zrotation
                                        JOINT RightHandIndex2
                                        {
                                            OFFSET -3.806000 0.000000 0.000000
                                            CHANNELS 3 Yrotation Xrotation Zrotation
                                            JOINT RightHandIndex3
                                            {
                                                OFFSET -2.158000 0.000000 0.000000
                                                CHANNELS 3 Yrotation Xrotation Zrotation
                                                End Site
                                                {
                                                    OFFSET -1.898000 0.000000 0.000000
                                                }
                                            }
                                        }
                                    }
                                }
                                JOINT RightInHandMiddle
                                {
                                    OFFSET -3.556000 0.544000 0.796000
                                    CHANNELS 3 Yrotation Xrotation Zrotation
                                    JOINT RightHandMiddle1
                                    {
                                        OFFSET -5.441000 -0.088000 0.330000
                                        CHANNELS 3 Yrotation Xrotation Zrotation
                                        JOINT RightHandMiddle2
                                        {
                                            OFFSET -4.153000 0.000000 0.000000
                                            CHANNELS 3 Yrotation Xrotation Zrotation
                                            JOINT RightHandMiddle3
                                            {
                                                OFFSET -2.603000 0.000000 0.000000
                                                CHANNELS 3 Yrotation Xrotation Zrotation
                                                End Site
                                                {
                                                    OFFSET -2.076000 0.000000 0.000000
                                                }
                                            }
                                        }
                                    }
                                }
                                JOINT RightInHandRing
                                {
                                    OFFSET -3.539000 0.566000 -0.136000
                                    CHANNELS 3 Yrotation Xrotation Zrotation
                                    JOINT RightHandRing1
                                    {
                                        OFFSET -4.873000 -0.023000 -0.504000
                                        CHANNELS 3 Yrotation Xrotation Zrotation
                                        JOINT RightHandRing2
                                        {
                                            OFFSET -3.619000 0.000000 0.000000
                                            CHANNELS 3 Yrotation Xrotation Zrotation
                                            JOINT RightHandRing3
                                            {
                                                OFFSET -2.511000 0.000000 0.000000
                                                CHANNELS 3 Yrotation Xrotation Zrotation
                                                End Site
                                                {
                                                    OFFSET -1.952000 0.000000 0.000000
                                                }
                                            }
                                        }
                                    }
                                }
                                JOINT RightInHandPinky
                                {
                                    OFFSET -3.324000 0.494000 -1.264000
                                    CHANNELS 3 Yrotation Xrotation Zrotation
                                    JOINT RightHandPinky1
                                    {
                                        OFFSET -4.354000 -0.023000 -1.147000
                                        CHANNELS 3 Yrotation Xrotation Zrotation
                                        JOINT RightHandPinky2
                                        {
                                            OFFSET -2.898000 0.000000 0.000000
                                            CHANNELS 3 Yrotation Xrotation Zrotation
                                            JOINT RightHandPinky3
                                            {
                                                OFFSET -1.831000 0.000000 0.000000
                                                CHANNELS 3 Yrotation Xrotation Zrotation
                                                End Site
                                                {
                                                    OFFSET -1.730000 0.000000 0.000000
                                                }
                                            }
                                        }
                                    }
                                }
                            }
                        }
                    }
                }
                JOINT LeftShoulder
                {
                    OFFSET 2.900000 13.340000 0.000000
                    CHANNELS 3 Yrotation Xrotation Zrotation
                    JOINT LeftArm
                    {
                        OFFSET 16.100000 0.000000 0.000000
                        CHANNELS 3 Yrotation Xrotation Zrotation
                        JOINT LeftForeArm
                        {
                            OFFSET 28.000000 0.000000 0.000000
                            CHANNELS 3 Yrotation Xrotation Zrotation
                            JOINT LeftHand
                            {
                                OFFSET 26.000000 0.000000 0.000000
                                CHANNELS 3 Yrotation Xrotation Zrotation
                                JOINT LeftHandThumb1
                                {
                                    OFFSET 1.937000 -0.484000 2.518000
                                    CHANNELS 3 Yrotation Xrotation Zrotation
                                    JOINT LeftHandThumb2
                                    {
                                        OFFSET 3.872000 0.000000 0.000000
                                        CHANNELS 3 Yrotation Xrotation Zrotation
                                        JOINT LeftHandThumb3
                                        {
                                            OFFSET 2.690000 0.000000 0.000000
                                            CHANNELS 3 Yrotation Xrotation Zrotation
                                            End Site
                                            {
                                                OFFSET 2.537000 0.000000 0.000000
                                            }
                                        }
                                    }
                                }
                                JOINT LeftInHandIndex
                                {
                                    OFFSET 3.389000 0.535000 2.080000
                                    CHANNELS 3 Yrotation Xrotation Zrotation
                                    JOINT LeftHandIndex1
                                    {
                                        OFFSET 5.485000 -0.096000 1.051000
                                        CHANNELS 3 Yrotation Xrotation Zrotation
                                        JOINT LeftHandIndex2
                                        {
                                            OFFSET 3.806000 0.000000 0.000000
                                            CHANNELS 3 Yrotation Xrotation Zrotation
                                            JOINT LeftHandIndex3
                                            {
                                                OFFSET 2.158000 0.000000 0.000000
                                                CHANNELS 3 Yrotation Xrotation Zrotation
                                                End Site
                                                {
                                                    OFFSET 1.898000 0.000000 0.000000
                                                }
                                            }
                                        }
                                    }
                                }
                                JOINT LeftInHandMiddle
                                {
                                    OFFSET 3.556000 0.544000 0.796000
                                    CHANNELS 3 Yrotation Xrotation Zrotation
                                    JOINT LeftHandMiddle1
                                    {
                                        OFFSET 5.441000 -0.088000 0.330000
                                        CHANNELS 3 Yrotation Xrotation Zrotation
                                        JOINT LeftHandMiddle2
                                        {
                                            OFFSET 4.153000 0.000000 0.000000
                                            CHANNELS 3 Yrotation Xrotation Zrotation
                                            JOINT LeftHandMiddle3
                                            {
                                                OFFSET 2.603000 0.000000 0.000000
                                                CHANNELS 3 Yrotation Xrotation Zrotation
                                                End Site
                                                {
                                                    OFFSET 2.076000 0.000000 0.000000
                                                }
                                            }
                                        }
                                    }
                                }
                                JOINT LeftInHandRing
                                {
                                    OFFSET 3.539000 0.566000 -0.136000
                                    CHANNELS 3 Yrotation Xrotation Zrotation
                                    JOINT LeftHandRing1
                                    {
                                        OFFSET 4.873000 -0.023000 -0.504000
                                        CHANNELS 3 Yrotation Xrotation Zrotation
                                        JOINT LeftHandRing2
                                        {
                                            OFFSET 3.619000 0.000000 0.000000
                                            CHANNELS 3 Yrotation Xrotation Zrotation
                                            JOINT LeftHandRing3
                                            {
                                                OFFSET 2.511000 0.000000 0.000000
                                                CHANNELS 3 Yrotation Xrotation Zrotation
                                                End Site
                                                {
                                                    OFFSET 1.952000 0.000000 0.000000
                                                }
                                            }
                                        }
                                    }
                                }
                                JOINT LeftInHandPinky
                                {
                                    OFFSET 3.324000 0.494000 -1.264000
                                    CHANNELS 3 Yrotation Xrotation Zrotation
                                    JOINT LeftHandPinky1
                                    {
                                        OFFSET 4.354000 -0.023000 -1.147000
                                        CHANNELS 3 Yrotation Xrotation Zrotation
                                        JOINT LeftHandPinky2
                                        {
                                            OFFSET 2.898000 0.000000 0.000000
                                            CHANNELS 3 Yrotation Xrotation Zrotation
                                            JOINT LeftHandPinky3
                                            {
                                                OFFSET 1.831000 0.000000 0.000000
                                                CHANNELS 3 Yrotation Xrotation Zrotation
                                                End Site
                                                {
                                                    OFFSET 1.730000 0.000000 0.000000
                                                }
                                            }
                                        }
                                    }
                                }
                            }
                        }
                    }
                }
            }
        }
    }
}
MOTION
Frames: 4
Frame Time: 0.011111
0.000000 97.119995 0.000000 0.000000 0.000000 0.000000 0.000000 0.000000 0.000000 0.000000 0.000000 0.000000 0.000000 0.000000 0.000000 0.000000 0.000000 0.000000 0.000000 0.000000 0.000000 0.000000 0.000000 0.000000 0.000000 0.000000 0.000000 0.000000 0.000000 0.000000 0.000000 0.000000 0.000000 0.000000 0.000000 0.000000 0.000000 0.000000 0.000000 0.000000 0.000000 0.000000 0.000000 0.000000 0.000000 0.000000 0.000000 0.000000 0.000000 0.000000 0.000000 0.000000 0.000000 0.000000 0.000000 0.000000 0.000000 0.000000 0.000000 0.000000 0.000000 0.000000 0.000000 0.000000 0.000000 0.000000 0.000000 0.000000 0.000000 0.000000 0.000000 0.000000 0.000000 0.000000 0.000000 0.000000 0.000000 0.000000 0.000000 0.000000 0.000000 0.000000 0.000000 0.000000 0.000000 0.000000 0.000000 0.000000 0.000000 0.000000 0.000000 0.000000 0.000000 0.000000 0.000000 0.000000 0.000000 0.000000 0.000000 0.000000 0.000000 0.000000 0.000000 0.000000 0.000000 0.000000 0.000000 0.000000 0.000000 0.000000 0.000000 0.000000 0.000000 0.000000 0.000000 0.000000 0.000000 0.000000 0.000000 0.000000 0.000000 0.000000 0.000000 0.000000 0.000000 0.000000 0.000000 0.000000 0.000000 0.000000 0.000000 0.000000 0.000000 0.000000 0.000000 0.000000 0.000000 0.000000 0.000000 0.000000 0.000000 0.000000 0.000000 0.000000 0.000000 0.000000 0.000000 0.000000 0.000000 0.000000 0.000000 0.000000 0.000000 0.000000 0.000000 0.000000 0.000000 0.000000 0.000000 0.000000 0.000000 0.000000 0.000000 0.000000 0.000000 0.000000 0.000000 0.000000 0.000000 0.000000 0.000000 0.000000 0.000000 0.000000 0.000000 0.000000 0.000000 0.000000 0.000000 0.000000
-0.001647 96.921600 0.878426 1.161208 -2.020513 0.527517 6.376200 3.307540 -0.855188 177.949570 173.653687 176.982361 169.550995 -174.389313 -176.753143 170.118454 176.935150 -178.834595 20.784079 6.280822 0.392800 175.873184 -171.396606 177.750885 179.088715 175.620819 -179.489014 179.096802 175.698761 -179.099869 175.654297 176.769363 -179.143494 0.000005 -3.335378 -0.901305 0.000006 -3.891278 -0.933494 174.682663 -177.093292 179.713364 1.680424 1.368918 0.231902 9.879865 -5.053722 83.846733 1.779517 1.525111 2.338414 1.190757 -1.780067 -6.070963 48.767178 26.744520 -9.926002 180.000000 -179.999985 -176.040314 180.000000 180.000000 -177.362854 0.000000 0.000000 0.000003 15.000006 -0.000002 19.002777 180.000000 -180.000000 -164.452286 180.000000 179.999985 -169.116608 0.000000 0.000000 0.000003 180.000000 179.999985 -160.416306 180.000000 180.000000 -160.416306 180.000000 -180.000000 -166.957260 0.000000 0.000000 0.000003 170.000000 179.999985 -160.214142 180.000000 179.999985 -160.214157 180.000000 180.000000 -166.822632 0.000000 0.000000 0.000003 160.000015 179.999985 -164.162964 179.999985 -179.999985 -156.244431 180.000000 -179.999985 -164.178787 176.452637 -179.819717 178.082123 164.368210 -172.339005 94.668259 179.232666 178.236786 -179.228088 179.219513 179.234070 -179.047668 129.096146 140.996246 -178.239395 180.000000 -179.999985 177.251831 180.000000 -179.999985 178.169724 0.000000 -0.000001 0.000000 164.999985 -179.999985 162.927582 179.999985 -180.000000 166.031662 179.999985 179.999985 170.222183 0.000000 -0.000001 0.000000 179.999985 -179.999985 162.900497 179.999985 -179.999985 162.900497 179.999985 -180.000000 168.611725 0.000000 -0.000001 0.000000 10.000031 0.000013 -19.043352 0.000032 0.000007 -19.043335 0.000017 -0.000002 -12.682877 0.000000 -0.000001 0.000000 20.000034 0.000028 -21.449438 0.000062 0.000014 -32.174141 0.000047 -0.000012 -21.427980
0.018133 96.898033 0.875878 1.139008 -1.981847 0.514587 6.462312 3.267667 -0.859965 177.971115 173.634903 176.995193 169.468582 -174.371735 -176.727264 170.209427 177.080429 -178.804291 20.710955 6.484534 0.433671 175.876678 -171.291290 177.746246 179.075211 175.630890 -179.473938 179.098572 175.708755 -179.091064 175.661758 176.775574 -179.130798 0.000009 -3.346744 -0.895490 0.000004 -3.904524 -0.927470 174.701752 -177.083969 179.716827 1.698397 1.368838 0.223825 9.894598 -5.057762 83.845276 1.776422 1.480749 2.337391 1.182669 -1.773758 -6.075280 48.773682 26.753399 -9.915165 0.000007 0.000003 3.958865 0.000007 0.000003 2.636604 0.000000 -0.000000 0.000000 15.000002 -0.000001 19.008173 0.000001 0.000002 15.552135 0.000000 -0.000000 10.886490 0.000000 -0.000000 0.000000 180.000000 180.000000 -160.394867 180.000000 180.000000 -160.394867 180.000000 180.000000 -166.942978 0.000000 -0.000000 0.000000 170.000000 180.000000 -160.186844 0.000000 -0.000000 19.813175 180.000000 180.000000 -166.804428 0.000000 -0.000000 0.000000 160.000015 180.000000 -164.145462 0.000004 0.000001 23.781815 180.000000 -180.000000 -164.161331 176.457504 -179.826309 178.051407 164.399643 -172.313538 94.682739 179.196426 178.213303 -179.239151 179.199677 179.142776 -178.977539 129.113251 141.028290 -178.225906 180.000000 -179.999985 177.240479 179.999985 179.999985 178.162170 180.000000 180.000000 -180.000000 165.000000 179.999985 162.873611 0.000002 0.000002 -14.012503 0.000010 -0.000004 -9.808757 180.000000 180.000000 -180.000000 179.999985 -179.999985 162.884384 179.999985 180.000000 162.884399 179.999985 -179.999985 168.600998 180.000000 180.000000 -180.000000 10.000030 0.000007 -19.022058 0.000026 0.000001 -19.022036 0.000009 -0.000008 -12.668693 180.000000 180.000000 -180.000000 20.000032 0.000014 -21.419519 0.000056 0.000009 -32.129284 0.000037 -0.000014 -21.398088
0.049995 96.888451 0.910730 1.098626 -1.946579 0.509041 6.574137 3.247573 -0.878340 177.975311 173.615265 177.012466 169.396652 -174.340332 -176.698135 170.263290 177.117737 -178.829697 20.670464 6.540829 0.485018 175.911011 -171.222046 177.725403 179.076355 175.638855 -179.459183 179.101318 175.716736 -179.084396 175.673996 176.780670 -179.120651 0.000004 -3.361206 -0.889423 0.000005 -3.921432 -0.921190 174.726410 -177.071915 179.720383 1.717770 1.379227 0.218306 9.919623 -5.067667 83.837860 1.776106 1.428615 2.333785 1.177435 -1.755856 -6.085142 48.769131 26.716938 -9.940849 0.000004 0.000003 3.962600 179.999985 180.000000 -177.360916 0.000000 0.000000 0.000000 14.999990 0.000003 19.003448 180.000000 180.000000 -164.451721 180.000000 -180.000000 -169.116196 0.000000 0.000000 0.000000 180.000000 179.999985 -160.396973 180.000000 179.999985 -160.396957 180.000000 -180.000000 -166.944366 0.000000 0.000000 0.000000 170.000000 -180.000000 -160.195526 180.000000 180.000000 -160.195526 180.000000 180.000000 -166.810226 0.000000 0.000000 0.000000 160.000015 -179.999985 -164.151886 180.000000 180.000000 -156.227844 0.000004 0.000001 15.832266 176.460922 -179.831055 178.015320 164.420670 -172.282974 94.714592 179.162155 178.194153 -179.266876 179.214813 179.072525 -178.914444 129.149918 141.030609 -178.207428 179.999985 -179.999985 177.230865 179.999985 179.999985 178.155777 180.000000 180.000000 179.999985 165.000015 -179.999985 162.883194 0.000005 0.000004 -14.004647 0.000005 0.000000 -9.803247 180.000000 180.000000 179.999985 180.000000 -180.000000 162.881058 179.999985 179.999985 162.881058 179.999985 -180.000000 168.598785 180.000000 180.000000 179.999985 10.000019 0.000013 -18.997742 0.000016 -0.000001 -18.997759 0.000016 -0.000003 -12.652493 180.000000 180.000000 179.999985 20.000034 0.000011 -21.375694 0.000041 0.000005 -32.063538 0.000020 -0.000014 -21.354332
